<?xml version="1.0" encoding="UTF-8"?>
<svg viewBox="0 0 1024 1024" xmlns="http://www.w3.org/2000/svg">
<defs><linearGradient id="g1" x1="0%" y1="0%" x2="100%" y2="100%"><stop offset="0%" stop-color="#6C5CE7"/><stop offset="50%" stop-color="#4ECDC4"/><stop offset="100%" stop-color="#2ECC71"/></linearGradient></defs>
<rect x="0" y="0" width="1024" height="1024" rx="220" fill="url(#g1)"/>
<g transform="translate(512,512)">
<line x1="0" y1="0" x2="-165" y2="-120" stroke="rgba(255,255,255,0.6)" stroke-width="4.5" stroke-linecap="round"/>
<line x1="0" y1="0" x2="165" y2="-120" stroke="rgba(255,255,255,0.6)" stroke-width="4.5" stroke-linecap="round"/>
<line x1="0" y1="0" x2="-180" y2="105" stroke="rgba(255,255,255,0.6)" stroke-width="4.5" stroke-linecap="round"/>
<line x1="0" y1="0" x2="180" y2="105" stroke="rgba(255,255,255,0.6)" stroke-width="4.5" stroke-linecap="round"/>
<line x1="0" y1="0" x2="0" y2="-210" stroke="rgba(255,255,255,0.6)" stroke-width="4.5" stroke-linecap="round"/>
<line x1="0" y1="0" x2="0" y2="225" stroke="rgba(255,255,255,0.6)" stroke-width="4.5" stroke-linecap="round"/>
<line x1="-165" y1="-120" x2="0" y2="-210" stroke="rgba(255,255,255,0.35)" stroke-width="3" stroke-linecap="round"/>
<line x1="165" y1="-120" x2="0" y2="-210" stroke="rgba(255,255,255,0.35)" stroke-width="3" stroke-linecap="round"/>
<line x1="-165" y1="-120" x2="-180" y2="105" stroke="rgba(255,255,255,0.35)" stroke-width="3" stroke-linecap="round"/>
<line x1="165" y1="-120" x2="180" y2="105" stroke="rgba(255,255,255,0.35)" stroke-width="3" stroke-linecap="round"/>
<line x1="-180" y1="105" x2="0" y2="225" stroke="rgba(255,255,255,0.35)" stroke-width="3" stroke-linecap="round"/>
<line x1="180" y1="105" x2="0" y2="225" stroke="rgba(255,255,255,0.35)" stroke-width="3" stroke-linecap="round"/>
<circle cx="-165" cy="-120" r="42" fill="rgba(255,255,255,0.85)"/>
<circle cx="165" cy="-120" r="42" fill="rgba(255,255,255,0.85)"/>
<circle cx="-180" cy="105" r="36" fill="rgba(255,255,255,0.75)"/>
<circle cx="180" cy="105" r="36" fill="rgba(255,255,255,0.75)"/>
<circle cx="0" cy="-210" r="30" fill="rgba(255,255,255,0.7)"/>
<circle cx="0" cy="225" r="33" fill="rgba(255,255,255,0.7)"/>
<circle cx="0" cy="0" r="78" fill="rgba(255,255,255,0.95)"/>
<text x="0" y="10" text-anchor="middle" font-family="Helvetica Neue,Arial,sans-serif" font-size="54" font-weight="700" fill="#6C5CE7">N</text>
</g>
</svg>
